<svg xmlns="http://www.w3.org/2000/svg" shape-rendering="geometricPrecision" text-rendering="geometricPrecision" image-rendering="optimizeQuality" fill-rule="evenodd" clip-rule="evenodd" viewBox="0 0 1200 1200">
  <defs/>
  <defs>
    <style>
      .fil1,.fil2,.fil3{fill:#7a93ac;fill-rule:nonzero;fill-opacity:.501961}.fil1,.fil2{fill:#7dd7e3}.fil1{fill:#ea5699}
    </style>
  </defs>
  <g id="Слой_x0020_1">
    <path fill="#f1f1f1" fill-rule="nonzero" d="M0 1200h1200V0H0z"/>
    <path class="fil1" d="M672.99 522.11l11.66-16.68c1.77-2.55.13-6.07-2.97-6.33l-20.27-1.76c-3.09-.27-5.32 2.91-4.01 5.73l8.62 18.43c1.32 2.82 5.18 3.15 6.97.61zM857.08 559.07l-17.01-11.17c-2.6-1.7-6.07.05-6.24 3.15l-1.17 20.32c-.18 3.1 3.07 5.23 5.84 3.83l18.18-9.15c2.77-1.39 3-5.27.4-6.98zM541.56 353.46l16.8 11.48c2.57 1.76 6.07.07 6.3-3.03l1.54-20.29c.24-3.09-2.97-5.29-5.77-3.94l-18.34 8.81c-2.8 1.34-3.1 5.21-.53 6.97zM1136.7 1121.58l-9.26-18.12c-1.41-2.77-5.29-2.97-6.98-.36l-11.07 17.08c-1.69 2.61.08 6.06 3.18 6.22l20.33 1.05c3.1.16 5.21-3.1 3.8-5.87zM1119.25 318.12l2.54-20.2c.39-3.08-2.7-5.43-5.57-4.22l-18.76 7.89c-2.86 1.21-3.35 5.06-.87 6.94l16.21 12.3c2.47 1.87 6.06.37 6.45-2.71zM842.43 408.02l-.37-20.35c-.06-3.1-3.46-4.98-6.12-3.38l-17.44 10.5c-2.66 1.6-2.59 5.48.13 6.99l17.81 9.85c2.72 1.5 6.05-.5 5.99-3.61zM966.4 1078.35l-12.85 15.78c-1.96 2.41-.58 6.04 2.49 6.54l20.09 3.23c3.07.5 5.52-2.51 4.42-5.42l-7.25-19.01c-1.1-2.91-4.94-3.53-6.9-1.12zM716.14 97.7l14.89-13.87c2.27-2.11 1.4-5.9-1.57-6.81L710 71.06c-2.97-.91-5.81 1.73-5.11 4.76l4.56 19.83c.7 3.03 4.41 4.17 6.69 2.05zM949.07 776.72l-18.81-7.79c-2.87-1.19-5.95 1.18-5.54 4.26l2.66 20.18c.4 3.08 3.99 4.56 6.46 2.67l16.14-12.39c2.47-1.9 1.96-5.75-.91-6.93zM292.02 817.76l2.17 20.24c.33 3.09 3.88 4.66 6.39 2.82l16.44-12c2.51-1.83 2.1-5.69-.75-6.95l-18.61-8.23c-2.84-1.26-5.97 1.03-5.64 4.12zM526.22 682.53l-10.63-17.36c-1.62-2.64-5.51-2.54-6.99.19l-9.71 17.88c-1.48 2.73.55 6.05 3.66 5.97l20.34-.54c3.11-.08 4.96-3.49 3.33-6.14zM948.44 72.51l9.54-17.97c1.46-2.75-.6-6.04-3.7-5.93l-20.35.73c-3.1.11-4.92 3.53-3.27 6.17l10.79 17.25c1.65 2.64 5.53 2.5 6.99-.25zM97.67 159.31l-12.95-15.7c-1.97-2.4-5.81-1.76-6.89 1.16l-7.13 19.06c-1.09 2.91 1.39 5.9 4.45 5.39l20.07-3.36c3.07-.51 4.42-4.16 2.45-6.55zM697.98 285.09l12.48 16.08c1.9 2.45 5.75 1.92 6.92-.95l7.69-18.84c1.18-2.88-1.21-5.96-4.28-5.53l-20.16 2.76c-3.08.42-4.55 4.02-2.65 6.48zM335.7 103.25l5.42 19.61c.83 3 4.59 3.97 6.77 1.76l14.27-14.51c2.18-2.21 1.15-5.96-1.86-6.74l-19.7-5.1c-3.01-.78-5.74 1.98-4.9 4.98z"/>
    <path class="fil2" d="M491.08 497.54l-20.35-.09c-3.1-.02-5.06 3.34-3.52 6.04l10.1 17.66c1.54 2.7 5.42 2.72 6.99.03l10.25-17.57c1.57-2.69-.36-6.06-3.47-6.07zM691.48 672.08L677.65 687c-2.12 2.28-.97 6 2.06 6.68l19.84 4.52c3.03.7 5.68-2.15 4.76-5.12l-6.01-19.45c-.92-2.97-4.7-3.83-6.82-1.55zM67.15 1056.91l-20.29-1.54c-3.1-.23-5.29 2.98-3.95 5.78l8.82 18.34c1.35 2.8 5.22 3.09 6.97.53l11.48-16.81c1.75-2.56.07-6.07-3.03-6.3zM466.98 1083.02l14.63 14.14c2.23 2.16 5.97 1.09 6.72-1.92l4.94-19.74c.75-3.02-2.04-5.72-5.03-4.86l-19.57 5.6c-2.98.85-3.92 4.62-1.69 6.78zM450.85 854.17l-.84 20.34c-.13 3.1 3.15 5.18 5.91 3.74l18.03-9.44c2.75-1.44 2.91-5.32.28-6.99l-17.18-10.89c-2.63-1.66-6.07.14-6.2 3.24zM275.53 427.98l-16.85-11.41c-2.57-1.74-6.07-.04-6.29 3.05l-1.45 20.3c-.23 3.1 2.99 5.28 5.79 3.92l18.3-8.89c2.8-1.35 3.08-5.22.5-6.97zM815.82 847.85l-20.13-3c-3.07-.46-5.49 2.58-4.35 5.48l7.46 18.93c1.15 2.88 4.99 3.46 6.92 1.03l12.66-15.93c1.94-2.43.52-6.05-2.56-6.51zM154.58 1107.58l-1.28 20.31c-.19 3.1 3.04 5.25 5.83 3.87l18.23-9.05c2.78-1.38 3.02-5.26.43-6.98l-16.95-11.26c-2.58-1.72-6.06 0-6.26 3.11zM108.27 532.95l20.27 1.81c3.1.28 5.33-2.9 4.02-5.72L124 510.58c-1.3-2.82-5.18-3.17-6.96-.62l-11.71 16.64c-1.79 2.55-.15 6.07 2.94 6.35zM565.75 172.44l10.39-17.5c1.59-2.67-.31-6.06-3.42-6.1l-20.35-.25c-3.11-.04-5.09 3.3-3.57 6.01l9.96 17.75c1.52 2.71 5.4 2.76 6.99.09zM791.97 1107.37l20.01-3.72c3.06-.56 4.35-4.22 2.33-6.58l-13.21-15.48c-2.02-2.36-5.84-1.65-6.88 1.28l-6.79 19.18c-1.04 2.93 1.49 5.88 4.54 5.32zM67.18 721.3l15.13-13.6c2.31-2.08 1.5-5.88-1.45-6.85l-19.35-6.3c-2.96-.96-5.85 1.64-5.2 4.68l4.22 19.91c.65 3.04 4.34 4.24 6.65 2.16zM345.01 657.59l11.11-17.05c1.7-2.61-.06-6.07-3.16-6.24l-20.32-1.09c-3.11-.17-5.23 3.09-3.82 5.86l9.21 18.14c1.41 2.77 5.28 2.98 6.98.38zM1112.27 821.53l19.05-7.17c2.91-1.1 3.53-4.93 1.13-6.9l-15.73-12.91c-2.41-1.97-6.04-.6-6.55 2.47l-3.3 20.08c-.51 3.07 2.49 5.53 5.4 4.43zM835.54 182.05l19.18 6.8c2.93 1.04 5.88-1.49 5.32-4.54l-3.7-20.01c-.57-3.06-4.23-4.35-6.59-2.34l-15.48 13.21c-2.37 2.02-1.66 5.84 1.27 6.88z"/>
    <path class="fil3" d="M175.44 72.01l-1.2 20.31c-.19 3.11 3.06 5.25 5.83 3.85l18.2-9.11c2.78-1.39 3.01-5.27.41-6.98l-16.98-11.2c-2.6-1.71-6.07.03-6.26 3.13zM91.08 349.52l1.39-20.3c.21-3.1-3.02-5.27-5.81-3.9l-18.27 8.95c-2.79 1.37-3.06 5.24-.48 6.98L84.8 352.6c2.58 1.73 6.07.02 6.28-3.08zM513.84 59.3l3.94-19.97c.61-3.04-2.32-5.6-5.26-4.6l-19.26 6.57c-2.94 1-3.7 4.81-1.36 6.85l15.32 13.4c2.34 2.05 6.01.8 6.62-2.25zM1062.1 652.53l10.35 17.53c1.57 2.67 5.46 2.64 6.98-.07l10.01-17.72c1.53-2.71-.44-6.05-3.55-6.02l-20.35.19c-3.11.04-5.02 3.41-3.44 6.09zM1082.78 959.78l14.65 14.12c2.24 2.15 5.97 1.08 6.72-1.94l4.9-19.75c.75-3.02-2.05-5.71-5.03-4.85l-19.56 5.63c-2.98.86-3.92 4.63-1.68 6.79zM207.83 697.74l-18.04 9.42c-2.75 1.44-2.92 5.32-.3 6.98l17.17 10.92c2.63 1.67 6.07-.13 6.2-3.24l.87-20.32c.14-3.11-3.14-5.19-5.9-3.76zM258.49 967.15l-4.56 19.83c-.7 3.03 2.15 5.68 5.12 4.77l19.45-5.97c2.98-.91 3.85-4.7 1.57-6.81l-14.89-13.87c-2.27-2.12-5.99-.98-6.69 2.05zM1043.7 489.5l13.31 15.39c2.03 2.35 5.85 1.62 6.87-1.32l6.67-19.22c1.02-2.94-1.52-5.87-4.57-5.29l-19.99 3.84c-3.05.58-4.33 4.25-2.29 6.6zM345.77 1140.7l-3.09-20.11c-.48-3.07-4.1-4.48-6.52-2.54l-15.87 12.74c-2.43 1.94-1.84 5.78 1.06 6.91l18.96 7.38c2.9 1.12 5.93-1.31 5.46-4.38zM100.56 906.09l9.43-18.04c1.43-2.75-.65-6.03-3.75-5.9l-20.33.86c-3.11.13-4.91 3.57-3.24 6.19l10.91 17.18c1.66 2.63 5.54 2.46 6.98-.29zM365.74 271.67l-20.33-.9c-3.11-.13-5.2 3.14-3.76 5.9l9.39 18.06c1.43 2.75 5.31 2.92 6.98.3l10.94-17.16c1.67-2.62-.12-6.07-3.22-6.2zM645.8 1064.98l16.07-12.49c2.45-1.91 1.92-5.76-.96-6.93l-18.85-7.67c-2.88-1.17-5.95 1.22-5.52 4.29l2.78 20.16c.43 3.09 4.03 4.55 6.48 2.64zM619.79 861.79l-4.41 19.87c-.68 3.04 2.18 5.66 5.15 4.73l19.41-6.11c2.96-.93 3.81-4.72 1.52-6.82l-14.99-13.76c-2.3-2.1-6-.94-6.68 2.09zM961.71 292.74l-17.18-10.91c-2.62-1.67-6.06.13-6.2 3.23l-.86 20.34c-.13 3.1 3.15 5.18 5.9 3.74l18.04-9.42c2.76-1.43 2.92-5.32.3-6.98zM1110.49 128.27l-6.86-19.16c-1.05-2.93-4.88-3.62-6.89-1.25l-13.16 15.52c-2 2.37-.7 6.03 2.36 6.58l20.02 3.64c3.06.55 5.57-2.41 4.53-5.33z"/>
  </g>
</svg>
